<svg width="50" height="50" viewBox="0 0 50 50" fill="none" xmlns="http://www.w3.org/2000/svg">
<path fill-rule="evenodd" clip-rule="evenodd" d="M25 50C38.8071 50 50 38.8071 50 25C50 11.1929 38.8071 0 25 0C11.1929 0 0 11.1929 0 25C0 38.8071 11.1929 50 25 50ZM47.1963 25C47.1963 37.2586 37.2587 47.1962 25 47.1962C12.7414 47.1962 2.80375 37.2586 2.80375 25C2.80375 12.7413 12.7414 2.80373 25 2.80373C37.2587 2.80373 47.1963 12.7413 47.1963 25ZM44.8598 25C44.8598 35.9683 35.9683 44.8598 25 44.8598C14.0317 44.8598 5.14019 35.9683 5.14019 25C5.14019 14.0317 14.0317 5.14019 25 5.14019C35.9683 5.14019 44.8598 14.0317 44.8598 25ZM26.5187 11.361C25.623 11.0105 24.5619 10.8353 23.3353 10.8353C21.9334 10.8353 20.6094 11.0884 19.3633 11.5947C18.1172 12.0814 17.0171 12.7823 16.0631 13.6975C15.109 14.5931 14.3594 15.664 13.8142 16.9101C13.2691 18.1562 12.9965 19.5386 12.9965 21.0573C12.9965 22.576 13.2691 23.9584 13.8142 25.2045C14.3594 26.4506 15.109 27.5312 16.0631 28.4463C16.7296 29.072 17.4674 29.6027 18.2765 30.0383C18.2417 29.6721 18.2243 29.2972 18.2243 28.9136C18.2243 27.6515 18.4125 26.4836 18.789 25.4098C18.4897 25.0824 18.2236 24.7219 17.9907 24.3283C17.426 23.3548 17.1437 22.2644 17.1437 21.0573C17.1437 19.8306 17.426 18.7403 17.9907 17.7862C18.5553 16.8322 19.3146 16.0728 20.2687 15.5082C21.2227 14.9436 22.2839 14.6612 23.4521 14.6612C24.3088 14.6612 25.0487 14.7683 25.6717 14.9825C26.3142 15.1967 26.8886 15.4693 27.3949 15.8003C27.9011 16.1313 28.3878 16.472 28.8551 16.8225V12.7337C28.1931 12.1496 27.4143 11.692 26.5187 11.361ZM26.6647 30.7535C26.0338 30.9762 25.3557 31.1281 24.6305 31.2093C24.3706 30.4979 24.2406 29.7326 24.2406 28.9136C24.2406 28.3787 24.2943 27.8697 24.4017 27.3867C25.295 27.313 26.0688 27.1308 26.7231 26.84C27.6188 26.4311 28.4268 25.9346 29.1472 25.3505V29.2932C28.4852 29.8968 27.6577 30.3836 26.6647 30.7535ZM29.4977 18.6916C30.7243 18.6916 31.7854 18.8669 32.6811 19.2173C33.5767 19.5483 34.3555 20.0059 35.0175 20.59V24.6788C34.5502 24.3283 34.0635 23.9876 33.5572 23.6566C33.051 23.3256 32.4766 23.053 31.8341 22.8388C31.2111 22.6246 30.4712 22.5176 29.6145 22.5176C28.4463 22.5176 27.3851 22.7999 26.4311 23.3645C25.477 23.9292 24.7177 24.6885 24.153 25.6426C23.5884 26.5966 23.3061 27.687 23.3061 28.9136C23.3061 30.1208 23.5884 31.2111 24.153 32.1846C24.7177 33.1387 25.477 33.898 26.4311 34.4627C27.3851 35.0078 28.4463 35.2804 29.6145 35.2804C30.919 35.2804 32.0093 35.0857 32.8855 34.6963C33.7812 34.2874 34.5892 33.7909 35.3096 33.2068V37.1496C34.6476 37.7531 33.8201 38.2399 32.8271 38.6098C31.8341 38.9603 30.7243 39.1355 29.4977 39.1355C28.0958 39.1355 26.7718 38.8922 25.5257 38.4054C24.2796 37.8992 23.1795 37.1982 22.2255 36.3026C21.2714 35.3875 20.5218 34.3069 19.9766 33.0608C19.4315 31.8147 19.1589 30.4323 19.1589 28.9136C19.1589 27.3949 19.4315 26.0125 19.9766 24.7664C20.5218 23.5203 21.2714 22.4494 22.2255 21.5538C23.1795 20.6387 24.2796 19.9377 25.5257 19.451C26.7718 18.9447 28.0958 18.6916 29.4977 18.6916Z" fill="white"/>
</svg>
